<svg xmlns="http://www.w3.org/2000/svg" viewBox="0 0 1024 1024">
  <defs>
    <linearGradient id="bg" x1="120" y1="80" x2="900" y2="944" gradientUnits="userSpaceOnUse">
      <stop offset="0" stop-color="#0f172a"/>
      <stop offset="1" stop-color="#134e4a"/>
    </linearGradient>
    <linearGradient id="panel" x1="220" y1="180" x2="804" y2="844" gradientUnits="userSpaceOnUse">
      <stop offset="0" stop-color="#0b1220"/>
      <stop offset="1" stop-color="#0b1f1a"/>
    </linearGradient>
    <linearGradient id="cell" x1="224" y1="208" x2="760" y2="760" gradientUnits="userSpaceOnUse">
      <stop offset="0" stop-color="#5eead4"/>
      <stop offset="1" stop-color="#22c55e"/>
    </linearGradient>
    <linearGradient id="accent" x1="704" y1="240" x2="848" y2="384" gradientUnits="userSpaceOnUse">
      <stop offset="0" stop-color="#fbbf24"/>
      <stop offset="1" stop-color="#f97316"/>
    </linearGradient>
    <filter id="shadow" x="-20%" y="-20%" width="140%" height="140%">
      <feDropShadow dx="0" dy="28" stdDeviation="28" flood-color="#020617" flood-opacity="0.28"/>
    </filter>
  </defs>

  <rect x="64" y="64" width="896" height="896" rx="208" fill="url(#bg)"/>
  <rect x="104" y="104" width="816" height="816" rx="176" fill="none" stroke="rgba(255,255,255,0.1)"/>

  <g filter="url(#shadow)">
    <rect x="172" y="172" width="680" height="680" rx="168" fill="url(#panel)"/>
    <rect x="172" y="172" width="680" height="680" rx="168" fill="none" stroke="rgba(148,163,184,0.18)" stroke-width="4"/>
  </g>

  <g fill="url(#cell)">
    <rect x="236" y="236" width="164" height="164" rx="44"/>
    <rect x="430" y="236" width="164" height="164" rx="44"/>
    <rect x="624" y="236" width="164" height="164" rx="44"/>
    <rect x="236" y="430" width="164" height="164" rx="44"/>
    <rect x="236" y="624" width="164" height="164" rx="44"/>
    <rect x="430" y="624" width="164" height="164" rx="44"/>
    <rect x="624" y="624" width="164" height="164" rx="44"/>
  </g>

  <rect x="624" y="430" width="164" height="164" rx="44" fill="#0b1220" stroke="rgba(148,163,184,0.2)" stroke-width="4"/>
  <circle cx="728" cy="512" r="26" fill="url(#accent)"/>

  <path
    d="M830 286c26 22 42 57 42 94 0 65-48 119-110 127"
    fill="none"
    stroke="url(#accent)"
    stroke-linecap="round"
    stroke-width="20"
    opacity="0.9"
  />
</svg>
